<?xml version="1.0" encoding="UTF-8"?>
<svg width="382px" height="42px" viewBox="0 0 382 42" version="1.1" xmlns="http://www.w3.org/2000/svg" xmlns:xlink="http://www.w3.org/1999/xlink">
    <title>线条</title>
    <defs>
        <linearGradient x1="100%" y1="50.1890797%" x2="0%" y2="49.2912732%" id="linearGradient-1">
            <stop stop-color="#03A983" offset="0%"></stop>
            <stop stop-color="#3BDCEB" offset="42.8516476%"></stop>
            <stop stop-color="#CCDD39" offset="100%"></stop>
        </linearGradient>
    </defs>
    <g id="新" stroke="none" stroke-width="1" fill="none" fill-rule="evenodd">
        <g id="1-1-1-首页-输入主题-交互" transform="translate(-876.000000, -220.000000)" fill="url(#linearGradient-1)" fill-rule="nonzero">
            <g id="编组-4" transform="translate(644.000000, 124.000000)">
                <path d="M410.76123,96.0197511 L411.976854,96.0057219 C417.357599,95.9611208 421.528347,96.1675569 424.453049,96.6608056 C426.771768,97.0518556 428.549076,97.61444 430.136919,98.768724 C433.952253,101.542285 434.54344,106.685979 431.533691,110.289718 L431.196611,110.684499 L431.096744,110.795634 L431.230081,110.780225 C441.870641,109.502942 453.430036,108.235131 465.1164,107.095177 L469.79584,106.646296 L472.13712,106.427495 C525.335919,101.500615 575.023308,99.6007398 614,101.95433 L613.162516,116.014396 C575.821071,113.75955 528.033758,115.509243 476.73301,120.150198 L472.268161,120.560636 L469.967323,120.777588 C443.510273,123.294217 417.237048,126.544505 400.958519,129.039818 L397.944447,129.511487 C392.838419,130.328336 388.971472,131.045983 386.73429,131.605147 C381.697189,132.864125 378.247016,133.185593 375.391719,132.127304 C371.846229,130.813203 369.523372,127.273593 370.335996,123.216619 C370.769873,121.050518 371.876136,119.479892 373.429596,118.022091 C376.054473,115.558849 380.499606,113.219785 385.374225,111.664225 L385.774139,111.539138 L385.406411,111.571002 C379.822414,112.052918 373.839317,112.647301 367.569843,113.347139 L365.144624,113.621493 C321.727688,118.597611 273.960165,127.326362 235.738836,137.999804 L232,124.426845 C270.409705,113.700799 318.018809,104.945663 361.584958,99.8553887 L363.562407,99.6265425 C382.518591,97.4539293 399.164793,96.1899401 410.76123,96.0197511 Z" id="线条"></path>
            </g>
        </g>
    </g>
</svg>